<?xml version="1.0" encoding="utf-8"?>
<!-- Generator: Adobe Illustrator 21.0.2, SVG Export Plug-In . SVG Version: 6.00 Build 0)  -->
<svg version="1.1" id="Layer_1" xmlns="http://www.w3.org/2000/svg" xmlns:xlink="http://www.w3.org/1999/xlink" x="0px" y="0px"
	 viewBox="0 0 1024 1024" style="enable-background:new 0 0 1024 1024;" xml:space="preserve">
<g>
	<g>
		<path d="M738.2,847.2l-24.1-75.8l-24.2,75.8l-79.3-0.4l64.3,46.4l-24.8,75.6l63.9-47l63.8,47l-24.8-75.6l64.3-46.4L738.2,847.2z
			 M889.7,695.7l-24.1-75.8l-24.2,75.8l-79.3-0.4l64.3,46.4l-24.8,75.6l63.9-47l63.8,47l-24.8-75.6l64.3-46.4L889.7,695.7z
			 M1024,488.7l-79.2,0.4l-24.1-75.8l-24.2,75.8l-79.3-0.4l64.3,46.4l-24.8,75.6l63.9-47l63.8,47l-24.8-75.6L1024,488.7z
			 M826.5,328.5l-24.8,75.6l63.9-47l63.8,47l-24.8-75.6l64.3-46.4l-79.2,0.4l-24.1-75.8l-24.2,75.8l-79.3-0.4L826.5,328.5z
			 M670.4,181.6l-24.8,75.6l63.9-47l63.8,47l-24.8-75.6l64.3-46.4l-79.2,0.4l-24.1-75.8l-24.2,75.8l-79.3-0.4L670.4,181.6z
			 M448.1,197.5l63.9-47l63.8,47l-24.8-75.6l64.3-46.4l-79.2,0.4L512,0.1l-24.2,75.8l-79.3-0.4l64.3,46.4L448.1,197.5z M246.1,257.2
			l63.9-47l63.8,47l-24.8-75.6l64.3-46.4l-79.2,0.4L310,59.8l-24.2,75.8l-79.3-0.4l64.3,46.4L246.1,257.2z M94.6,408.7l63.9-47
			l63.8,47l-24.8-75.6l64.3-46.4l-79.2,0.4l-24.1-75.8l-24.2,75.8l-79.3-0.4l64.3,46.4L94.6,408.7z M103.4,563.7l63.8,47l-24.8-75.6
			l64.3-46.4l-79.2,0.4l-24.1-75.8l-24.2,75.8L0,488.7l64.3,46.4l-24.8,75.6L103.4,563.7z M197.6,741.7l64.3-46.4l-79.2,0.4
			l-24.1-75.8l-24.2,75.8l-79.3-0.4l64.3,46.4l-24.8,75.6l63.9-47l63.8,47L197.6,741.7z M413.4,842.2l-79.2,0.4L310,766.8
			l-24.2,75.8l-79.3-0.4l64.3,46.4l-24.8,75.6l63.9-47l63.8,47l-24.8-75.6L413.4,842.2z M536.1,902.3L512,826.5l-24.2,75.8
			l-79.3-0.4l64.3,46.4l-24.8,75.6l63.9-47l63.8,47l-24.8-75.6l64.3-46.4L536.1,902.3z"/>
	</g>
</g>
</svg>
