<?xml version="1.0" encoding="utf-8"?>
<!-- Generator: Adobe Illustrator 15.1.0, SVG Export Plug-In . SVG Version: 6.00 Build 0)  -->
<!DOCTYPE svg PUBLIC "-//W3C//DTD SVG 1.1//EN" "http://www.w3.org/Graphics/SVG/1.1/DTD/svg11.dtd">
<svg version="1.1" id="Layer_1" xmlns="http://www.w3.org/2000/svg" xmlns:xlink="http://www.w3.org/1999/xlink" x="0px" y="0px"
	 width="66px" height="66px" viewBox="0 0 66 66" enable-background="new 0 0 66 66" xml:space="preserve">
<path id="star" fill-rule="evenodd" clip-rule="evenodd" d="M61.192,35.776l4.81-2.775l-4.81-2.776l4.175-3.661l-5.258-1.786l3.38-4.405
	l-5.506-0.725l2.457-4.98l-5.541,0.363l1.438-5.363l-5.365,1.436l0.365-5.54l-4.982,2.455l-0.724-5.506l-4.406,3.381L39.44,0.635
	L35.778,4.81L33.001,0l-2.776,4.81l-3.662-4.175l-1.785,5.258l-4.405-3.381l-0.725,5.506l-4.981-2.456l0.364,5.541L9.667,9.665
	l1.437,5.365l-5.542-0.364l2.457,4.981L2.513,20.37l3.38,4.407l-5.258,1.784l4.174,3.663L0,32.999l4.809,2.777l-4.175,3.662
	l5.259,1.785l-3.381,4.404l5.506,0.726l-2.457,4.981l5.541-0.364l-1.437,5.364l5.364-1.437l-0.363,5.541l4.98-2.457l0.725,5.507
	l4.406-3.381l1.784,5.258l3.663-4.174L33,66.001l2.777-4.809l3.661,4.175l1.786-5.259l4.405,3.381l0.725-5.507l4.98,2.457
	l-0.363-5.541l5.363,1.438l-1.436-5.366l5.54,0.365l-2.456-4.982l5.506-0.724l-3.38-4.406l5.258-1.785L61.192,35.776z"/>
</svg>
