<?xml version="1.0" encoding="utf-8"?>
<!-- Generator: Adobe Illustrator 21.0.2, SVG Export Plug-In . SVG Version: 6.00 Build 0)  -->
<svg version="1.1" id="Layer_1" xmlns="http://www.w3.org/2000/svg" xmlns:xlink="http://www.w3.org/1999/xlink" x="0px" y="0px"
	 viewBox="0 0 1024 1024" style="enable-background:new 0 0 1024 1024;" xml:space="preserve">
<path  fill="#5f727f" d="M1019.8,451.8c-16.6-88.4-71.3-144.2-154.4-173.5c-38.9-13.7-79.7-15.8-120.3-11.3c-23.3,2.5-46.1,9-69.1,13.7
	c0,1.3,0,2.5,0,3.8c16.9,11.6,36.5,17,56.1,21.2c20,4.3,40.6,5.6,63,8.6c-5.8,1.9-9.7,3.8-13.9,4.5c-55.1,9.9-107.9,2.2-157.5-23.5
	c-33.7-17.4-58.1-46.2-83.8-73.2c-17.3-18.2-34.9-36.7-54.7-52c-35.3-27.2-77-38.4-121.1-43.5c-55.7-6.5-109.3,0.9-161.4,20.3
	c-59.3,22.1-107.8,59.4-143.6,111C13,324.2-7.3,397.6,2.4,478.9c8.4,70.3,37.8,130.1,86.2,180.7c44.8,46.8,98.2,82.5,162,93.7
	c93.2,16.4,178.1-6.1,215.6-24.4c7.1-3.4,14.2-6.7,21.3-10c0.5,0.7,1,1.5,1.5,2.2c-3.7,5.9-6.7,8.8-11.2,13.4
	c-33.7,34.3-88,53.2-135.9,67c-9.7,2.8-17.6,0.7-13.3,10.1c6.5,14.1,12.8,28.8,22.1,40.9c10,12.9,23.1,24.5,40.9,25.1
	c14.8,0.5,29.9-0.8,44.6-3c22-3.2,43.7-9.1,65.7-11.7c38.6-4.5,77.2-4.1,115.7,2.8c33.3,5.9,65.3,15.3,95.8,30
	c12.6,6.1,13.4,5.9,17.2-7.2c12.8-44.6,25.5-89.3,38.7-133.8c8.9-30.1,15.2-11.9,83.5-40.3c24.8-10.3,49.8-21.2,72.6-35.2
	c22.3-13.7,40.5-33.2,56-54.8C1018.9,572.4,1031.5,514.5,1019.8,451.8z"/>
</svg>
